<svg id="Layer_1" data-name="Layer 1" xmlns="http://www.w3.org/2000/svg" viewBox="0 0 1200 500"><defs><style>.cls-1{fill:#e82429;}.cls-2{fill:#f17125;}</style></defs><title>logo_matbao_slogan</title><path class="cls-1" d="M1135.25,192.73A76.2,76.2,0,0,0,984.4,177.51l.92.12a53.88,53.88,0,0,1,105.82,13.53s1.06,13.86-6.92,30.13a8.48,8.48,0,0,0-.63,1.78,84.59,84.59,0,0,1-160.4-37l-.65-.09a106.94,106.94,0,0,0,210,31.42l-.23-.05c1.94-6.85,3.84-16.26,3-24.62"/><path class="cls-2" d="M1046.55,80.84a106.93,106.93,0,0,0-115.84,67.55l-.26,0s-.41,1.31-1,3.48c-.44,1.31-.89,2.59-1.28,3.92l.25,0c-2,8-4.62,20.86-3.78,30.64l.35.06A76.18,76.18,0,0,0,1075.3,199l-.89-.13a53.88,53.88,0,0,1-105.49-16l-.38-.06a63.81,63.81,0,0,1,3.62-20.47l.18,0a84.58,84.58,0,0,1,164.38,29.43l.67.09a106.94,106.94,0,0,0-90.84-111.11"/><polygon class="cls-1" points="248.68 292.57 247.77 90.8 159.5 168.53 60.36 89.9 60.36 126.07 60.36 143.37 60.36 293.93 105.64 293.93 105.64 179.75 159.15 222.78 206.12 182.1 206.12 292.57 248.68 292.57"/><polygon class="cls-1" points="573.7 93.83 434.29 93.83 434.29 138.8 483.17 138.8 483.17 293.02 524.8 293.02 524.8 138.8 573.7 138.8 573.7 93.83"/><polygon class="cls-1" points="850.6 183.26 909.6 293.02 953.94 293.02 850.49 89.53 746 293.02 793.54 293.02 850.41 183.81 850.6 183.26"/><polygon class="cls-2" points="826.81 293.02 850.65 245.43 874.54 293.02 826.81 293.02"/><polygon class="cls-1" points="423.44 293.02 467.76 293.02 364.33 89.55 259.82 293.02 307.35 293.02 364.23 176.84 423.44 293.02"/><polygon class="cls-2" points="340.61 293.02 364.48 239.65 388.36 293.02 340.61 293.02"/><path class="cls-1" d="M733.89,186.85a59,59,0,0,0-42.42-93.36,71.89,71.89,0,0,0-8.35-.46H586.94V292.27H696.77l.78,0a59,59,0,0,0,36.34-105.44m-40.5,63.55-.13,0v0H628.37l.22-121.52,53.48.13v0h.12a21.13,21.13,0,1,1,0,42.25h-28.4v36.79h39.47v0h.13a21.15,21.15,0,0,1,0,42.3"/><path class="cls-1" d="M124.82,392.85q0,13.95-9.18,23.21t-23.12,9.27a31.29,31.29,0,0,1-22.77-9.16,30.45,30.45,0,0,1-9.39-22.59,29.53,29.53,0,0,1,9.55-22.41,33.47,33.47,0,0,1,41.5-2.88A27.83,27.83,0,0,1,123,383.83H105.7A14.35,14.35,0,0,0,92.36,376a15.5,15.5,0,0,0-12,5.19,17.81,17.81,0,0,0-4.55,12.39,18.82,18.82,0,0,0,4.44,12.78,15.34,15.34,0,0,0,12.18,5.38,16.74,16.74,0,0,0,9-2.35A12.37,12.37,0,0,0,106.9,402H88.84V389.66h35.91c0,.48,0,1,.07,1.6Z"/><path class="cls-1" d="M184.7,416.26a32.88,32.88,0,0,1-45,.16,28.85,28.85,0,0,1-9.51-21.85,35.47,35.47,0,0,1,2.36-12.94,27.45,27.45,0,0,1,4-6.79q9.44-12.42,25.6-12.42a31.17,31.17,0,0,1,22.61,9,31.54,31.54,0,0,1,0,44.81Zm-10.58-34.83a15.21,15.21,0,0,0-12-5.43,15.37,15.37,0,0,0-12,5.27,17.85,17.85,0,0,0-4.55,12.38,18.28,18.28,0,0,0,4.59,12.62,15.4,15.4,0,0,0,12.1,5.39,15,15,0,0,0,11.79-5.43,18.18,18.18,0,0,0,4.47-12.34A18.38,18.38,0,0,0,174.12,381.43Z"/><path class="cls-1" d="M279.51,416.26a32.88,32.88,0,0,1-45,.16A28.85,28.85,0,0,1,225,394.57a35.47,35.47,0,0,1,2.36-12.94,28.09,28.09,0,0,1,4-6.79q9.44-12.42,25.6-12.42a31.17,31.17,0,0,1,22.61,9,31.52,31.52,0,0,1,0,44.81Zm-10.58-34.83A15.2,15.2,0,0,0,257,376a15.39,15.39,0,0,0-12,5.27,17.89,17.89,0,0,0-4.55,12.38A18.28,18.28,0,0,0,245,406.27a15.4,15.4,0,0,0,12.11,5.39,14.94,14.94,0,0,0,11.78-5.43,18.18,18.18,0,0,0,4.47-12.34A18.38,18.38,0,0,0,268.93,381.43Z"/><path class="cls-1" d="M334.82,424.09l-23-36.83-.2.08.44,36.75H297.2V363.54h13.34l23.4,38.06.16-.16-.68-37.9h14.83v60.55Z"/><path class="cls-1" d="M359.67,424.09V363.54h15.45v47h17.93v13.58Z"/><path class="cls-1" d="M399.08,424.09V363.54h15.46v60.55Z"/><path class="cls-1" d="M463.1,424.09l-23-36.83-.2.08.43,36.75H425.48V363.54h13.34l23.4,38.06.16-.16-.68-37.9h14.82v60.55Z"/><path class="cls-1" d="M487.54,424.09V363.54h33.64v13.58H502.36v9.42h18.21v13.58H502.36v10.39h18.82v13.58Z"/><path class="cls-1" d="M531,424.09v-13.9h14.14v13.9Z"/><path class="cls-1" d="M643.46,392.85q0,13.95-9.18,23.21t-23.12,9.27a31.29,31.29,0,0,1-22.77-9.16A30.45,30.45,0,0,1,579,393.58a29.53,29.53,0,0,1,9.55-22.41,33.47,33.47,0,0,1,41.5-2.88,27.78,27.78,0,0,1,11.62,15.54H624.34A14.35,14.35,0,0,0,611,376a15.5,15.5,0,0,0-12,5.19,17.81,17.81,0,0,0-4.55,12.39,18.82,18.82,0,0,0,4.44,12.78,15.34,15.34,0,0,0,12.18,5.38,16.74,16.74,0,0,0,9-2.35,12.37,12.37,0,0,0,5.44-7.39H607.48V389.66h35.91c0,.48.05,1,.07,1.6Z"/><path class="cls-1" d="M703.34,416.26a32.88,32.88,0,0,1-45,.16,28.85,28.85,0,0,1-9.51-21.85,35.47,35.47,0,0,1,2.36-12.94,27.45,27.45,0,0,1,4-6.79q9.43-12.42,25.6-12.42a31.17,31.17,0,0,1,22.61,9,31.54,31.54,0,0,1,0,44.81Zm-10.58-34.83a15.21,15.21,0,0,0-12-5.43,15.37,15.37,0,0,0-12,5.27,17.85,17.85,0,0,0-4.55,12.38,18.28,18.28,0,0,0,4.59,12.62,15.4,15.4,0,0,0,12.1,5.39,15,15,0,0,0,11.79-5.43,18.18,18.18,0,0,0,4.47-12.34A18.38,18.38,0,0,0,692.76,381.43Z"/><path class="cls-1" d="M779.7,420.69q-5.6,4.56-15,4.56-9.61,0-15.49-4.8-6.36-5.11-6.35-14.46V404h15.37a10.19,10.19,0,0,0,1.48,5.63,5.39,5.39,0,0,0,4.84,2.63q5.87,0,5.86-5.79a5.24,5.24,0,0,0-2-4.27,12.19,12.19,0,0,0-2.08-1.28l-1.16-.56-6.59-2.83a45.61,45.61,0,0,1-5.63-2.76,23.2,23.2,0,0,1-4.71-3.55,15.13,15.13,0,0,1-4.44-11,15.83,15.83,0,0,1,6.71-13.15,23.27,23.27,0,0,1,14.46-4.67,24.24,24.24,0,0,1,9,1.68,18.17,18.17,0,0,1,7.43,5.19q3.75,4.63,4,11.94H770c-.59-3.93-2.44-5.91-5.56-5.91q-5.31,0-5.31,4.75a4.84,4.84,0,0,0,.56,2.56q.91,1.56,5.55,3.84l6.39,2.87a47.8,47.8,0,0,1,5.59,2.91,22.14,22.14,0,0,1,4.48,3.56,15.23,15.23,0,0,1,4.07,10.86Q785.77,415.78,779.7,420.69Z"/><path class="cls-1" d="M839.4,400.12a40.16,40.16,0,0,1-1,10,19.71,19.71,0,0,1-5,8.55q-6.43,6.54-16.94,6.55a29.09,29.09,0,0,1-9.43-1.48,19.4,19.4,0,0,1-8-5,20.39,20.39,0,0,1-5.11-8.62,28.37,28.37,0,0,1-.81-4.68c-.1-1.38-.15-3.16-.15-5.35V363.54h15.45v36.58a30.38,30.38,0,0,0,.24,4.12,12,12,0,0,0,1.08,3.71c1.22,2.48,3.41,3.71,6.55,3.71s5.43-1.2,6.55-3.63a12.94,12.94,0,0,0,1-3.67c.1-1.07.16-2.48.16-4.24V363.54H839.4Z"/><path class="cls-1" d="M910.21,401.44a30.48,30.48,0,0,1-11.14,17.26,32.35,32.35,0,0,1-42-2.56,31.54,31.54,0,0,1-.08-44.73,31,31,0,0,1,22.49-9q17.25,0,26.64,14.22a25.52,25.52,0,0,1,4.11,9.9H894Q890,376,879.38,376a15,15,0,0,0-11.79,5.31,18.22,18.22,0,0,0-4.43,12.34,18.61,18.61,0,0,0,4.43,12.5,14.87,14.87,0,0,0,11.87,5.51q9.9,0,14.54-10.22Z"/><path class="cls-1" d="M978.22,401.44a30.48,30.48,0,0,1-11.14,17.26,32.34,32.34,0,0,1-42-2.56,31.52,31.52,0,0,1-.08-44.73,31,31,0,0,1,22.48-9q17.26,0,26.64,14.22a25.52,25.52,0,0,1,4.11,9.9H962Q958,376,947.39,376a14.94,14.94,0,0,0-11.78,5.31,18.17,18.17,0,0,0-4.43,12.34,18.56,18.56,0,0,0,4.43,12.5,14.85,14.85,0,0,0,11.86,5.51q9.9,0,14.54-10.22Z"/><path class="cls-1" d="M986.21,424.09V363.54h33.63v13.58H1001v9.42h18.22v13.58H1001v10.39h18.82v13.58Z"/><path class="cls-1" d="M1062.81,420.69q-5.6,4.56-15,4.56-9.61,0-15.49-4.8Q1026,415.34,1026,406V404h15.38a10.19,10.19,0,0,0,1.47,5.63,5.39,5.39,0,0,0,4.84,2.63q5.86,0,5.87-5.79a5.22,5.22,0,0,0-2-4.27,11.8,11.8,0,0,0-2.08-1.28l-1.16-.56-6.59-2.83a46.33,46.33,0,0,1-5.63-2.76,23.2,23.2,0,0,1-4.71-3.55,15.13,15.13,0,0,1-4.43-11,15.83,15.83,0,0,1,6.71-13.15,23.25,23.25,0,0,1,14.46-4.67,24.23,24.23,0,0,1,8.94,1.68,18.11,18.11,0,0,1,7.43,5.19q3.75,4.63,4,11.94h-15.29c-.59-3.93-2.44-5.91-5.55-5.91-3.54,0-5.32,1.58-5.32,4.75a4.84,4.84,0,0,0,.56,2.56q.93,1.56,5.55,3.84l6.4,2.87a48.62,48.62,0,0,1,5.59,2.91,21.78,21.78,0,0,1,4.47,3.56,15.19,15.19,0,0,1,4.07,10.86Q1068.88,415.78,1062.81,420.69Z"/><path class="cls-1" d="M1109.66,420.69q-5.6,4.56-15,4.56-9.63,0-15.49-4.8-6.36-5.11-6.36-14.46V404h15.38a10.11,10.11,0,0,0,1.48,5.63,5.38,5.38,0,0,0,4.83,2.63q5.87,0,5.87-5.79a5.22,5.22,0,0,0-2-4.27,11.68,11.68,0,0,0-2.07-1.28l-1.16-.56-6.59-2.83a45.61,45.61,0,0,1-5.63-2.76,22.66,22.66,0,0,1-4.71-3.55,15.13,15.13,0,0,1-4.44-11,15.83,15.83,0,0,1,6.71-13.15,23.25,23.25,0,0,1,14.46-4.67,24.15,24.15,0,0,1,8.94,1.68,18.14,18.14,0,0,1,7.44,5.19q3.75,4.63,4,11.94H1100c-.58-3.93-2.43-5.91-5.55-5.91q-5.31,0-5.31,4.75a4.84,4.84,0,0,0,.56,2.56q.91,1.56,5.55,3.84l6.39,2.87a48.62,48.62,0,0,1,5.59,2.91,21.78,21.78,0,0,1,4.47,3.56,15.19,15.19,0,0,1,4.08,10.86Q1115.73,415.78,1109.66,420.69Z"/><path class="cls-1" d="M1123.39,424.09v-13.9h14.14v13.9Z"/></svg>